<?xml version="1.0" standalone="no"?>
<!DOCTYPE svg PUBLIC "-//W3C//DTD SVG 20010904//EN"
 "http://www.w3.org/TR/2001/REC-SVG-20010904/DTD/svg10.dtd">
<svg version="1.0" xmlns="http://www.w3.org/2000/svg"
 width="500.000000pt" height="500.000000pt" viewBox="0 0 500.000000 500.000000"
 preserveAspectRatio="xMidYMid meet">
<metadata>
Created by potrace 1.15, written by Peter Selinger 2001-2017
</metadata>
<g transform="translate(0.000000,500.000000) scale(0.100000,-0.100000)"
fill="#000000" stroke="none">
<path d="M0 2500 l0 -2500 2500 0 2500 0 0 2500 0 2500 -2500 0 -2500 0 0
-2500z m2131 859 c6 -12 8 -38 5 -58 -4 -26 -3 -30 4 -16 7 16 9 13 9 -19 1
-48 18 -186 41 -331 10 -60 17 -133 16 -162 -1 -29 2 -47 6 -40 8 12 9 7 10
-83 1 -25 4 -47 8 -50 11 -9 30 -183 24 -225 -4 -27 -3 -36 4 -26 12 17 23
-107 11 -130 -10 -20 -65 -30 -183 -35 -56 -2 -92 -7 -97 -15 -7 -11 -74 -7
-86 5 -3 3 -16 103 -29 223 -13 120 -33 281 -43 358 -11 77 -29 221 -41 320
-12 99 -26 188 -31 197 -5 10 -9 29 -9 43 0 14 -5 25 -12 25 -6 0 -9 3 -5 6 7
7 239 31 324 33 54 1 64 -2 74 -20z m-874 -15 c-3 -3 -12 -4 -19 -1 -8 3 -5 6
6 6 11 1 17 -2 13 -5z m166 -1 c-7 -2 -21 -2 -30 0 -10 3 -4 5 12 5 17 0 24
-2 18 -5z m75 0 c-10 -2 -28 -2 -40 0 -13 2 -5 4 17 4 22 1 32 -1 23 -4z m175
0 c-29 -2 -77 -2 -105 0 -29 2 -6 3 52 3 58 0 81 -1 53 -3z m-312 -54 c-2 -35
-6 -47 -12 -38 -10 16 -12 73 -2 82 14 15 18 5 14 -44z m77 29 c-3 -7 -11 -13
-18 -13 -7 0 -15 -6 -18 -13 -2 -8 2 -10 15 -5 15 6 16 4 6 -9 -7 -8 -12 -17
-10 -19 1 -2 -4 2 -10 10 -14 16 -18 55 -5 47 4 -2 14 -1 22 5 20 12 22 11 18
-3z m267 -18 c3 5 3 15 -1 22 -4 7 -3 8 4 4 19 -11 14 -30 -10 -45 -13 -7 -20
-10 -15 -6 4 5 0 20 -9 34 l-15 26 20 -23 c11 -13 22 -18 26 -12z m-212 13
c-7 -2 -19 -2 -25 0 -7 3 -2 5 12 5 14 0 19 -2 13 -5z m117 -3 c0 -5 -21 -9
-47 -8 l-48 1 45 7 c25 4 46 8 48 8 1 1 2 -2 2 -8z m-601 -435 c-2 -206 -7
-375 -11 -375 -5 0 -8 169 -8 375 0 270 3 375 11 375 8 0 10 -103 8 -375z
m358 323 c-3 -7 -5 -2 -5 12 0 14 2 19 5 13 2 -7 2 -19 0 -25z m20 -125 c-2
-21 -4 -4 -4 37 0 41 2 58 4 38 2 -21 2 -55 0 -75z m328 47 c3 -5 1 -10 -4
-10 -6 0 -11 5 -11 10 0 6 2 10 4 10 3 0 8 -4 11 -10z m2 -39 c0 -11 -5 -18
-9 -15 -4 3 -5 11 -1 19 7 21 12 19 10 -4z m2 -93 c1 -28 0 -50 -3 -47 -7 8
-13 99 -6 99 4 0 8 -23 9 -52z m-1 -235 l-2 -178 -6 170 c-3 94 -4 173 -2 178
10 23 12 -11 10 -170z m-31 115 c-3 -7 -5 -2 -5 12 0 14 2 19 5 13 2 -7 2 -19
0 -25z m0 -237 c-2 -92 -7 -166 -12 -168 -6 -2 -9 72 -6 194 2 136 6 189 12
168 5 -16 8 -104 6 -194z m-370 -48 c-3 -10 -5 -2 -5 17 0 19 2 27 5 18 2 -10
2 -26 0 -35z m400 -50 c-3 -10 -5 -4 -5 12 0 17 2 24 5 18 2 -7 2 -21 0 -30z
m-8 -354 c-6 -3 -21 -4 -33 -1 -17 5 -18 7 -4 10 11 2 15 9 11 20 -4 13 -2 12
10 -3 15 -19 17 -9 19 130 l2 150 3 -149 c3 -104 0 -152 -8 -157z m-309 285
c0 -8 -19 -13 -24 -6 -3 5 1 9 9 9 8 0 15 -2 15 -3z m-33 -36 c-3 -8 -6 -5 -6
6 -1 11 2 17 5 13 3 -3 4 -12 1 -19z m58 12 c3 -5 -1 -10 -10 -10 -9 0 -13 5
-10 10 3 6 8 10 10 10 2 0 7 -4 10 -10z m275 6 c0 -2 -7 -7 -16 -10 -8 -3 -12
-2 -9 4 6 10 25 14 25 6z m-164 -21 c-13 -10 -15 -15 -6 -15 7 0 11 -3 7 -6
-3 -3 -10 -3 -16 0 -15 10 -2 36 18 36 14 -1 13 -3 -3 -15z m-41 -15 c3 -5 -1
-10 -9 -10 -9 0 -16 5 -16 10 0 6 4 10 9 10 6 0 13 -4 16 -10z m185 0 c0 -5
-7 -10 -16 -10 -8 0 -12 5 -9 10 3 6 10 10 16 10 5 0 9 -4 9 -10z m-207 -48
c3 8 6 9 6 2 1 -7 -7 -22 -16 -33 l-18 -22 0 30 c0 21 3 27 12 20 7 -7 13 -5
16 3z m224 -49 c-3 -10 -5 -2 -5 17 0 19 2 27 5 18 2 -10 2 -26 0 -35z m-287
21 c0 -8 -5 -12 -10 -9 -6 4 -8 11 -5 16 9 14 15 11 15 -7z m227 -16 c-3 -8
-6 -5 -6 6 -1 11 2 17 5 13 3 -3 4 -12 1 -19z m-146 -78 c-4 -12 -6 -12 -9 3
-2 9 -8 17 -13 17 -5 0 -9 7 -9 15 0 12 3 12 18 -2 10 -10 16 -25 13 -33z
m-70 13 c-12 -20 -14 -14 -5 12 4 9 9 14 11 11 3 -2 0 -13 -6 -23z m-321 -18
c14 -19 14 -19 -2 -6 -10 7 -18 18 -18 24 0 6 1 8 3 6 1 -2 9 -13 17 -24z
m597 3 c-3 -8 -6 -5 -6 6 -1 11 2 17 5 13 3 -3 4 -12 1 -19z m-311 -34 c-7
-19 -26 -9 -25 14 0 14 2 13 9 -3 8 -18 9 -18 10 5 1 14 4 19 7 12 3 -7 2 -20
-1 -28z m208 20 c3 -8 2 -12 -4 -9 -6 3 -10 10 -10 16 0 14 7 11 14 -7z m66
-4 c0 -5 -5 -10 -11 -10 -5 0 -7 5 -4 10 3 6 8 10 11 10 2 0 4 -4 4 -10z
m-640 -30 c0 -5 -5 -10 -11 -10 -5 0 -7 5 -4 10 3 6 8 10 11 10 2 0 4 -4 4
-10z m467 -6 c-3 -3 -12 -4 -19 -1 -8 3 -5 6 6 6 11 1 17 -2 13 -5z m96 -1
c-13 -2 -33 -2 -45 0 -13 2 -3 4 22 4 25 0 35 -2 23 -4z"/>
<path d="M1965 3300 c-22 -4 -62 -11 -89 -15 l-48 -7 5 -41 c3 -23 11 -82 17
-132 15 -126 37 -282 55 -399 8 -55 15 -123 15 -151 0 -53 18 -84 40 -70 6 3
54 12 108 19 l97 12 -3 45 c-1 24 -9 87 -18 139 -24 143 -42 289 -55 445 -6
77 -16 146 -21 153 -11 13 -41 14 -103 2z"/>
<path d="M2011 2377 c-16 -16 -14 -60 4 -83 8 -10 15 -14 15 -8 0 7 11 9 25 6
14 -2 32 1 40 8 18 15 20 66 4 76 -20 12 -76 13 -88 1z"/>
</g>
</svg>
